<?xml version="1.0" encoding="iso-8859-1"?>
<!-- Uploaded to: SVG Repo, www.svgrepo.com, Generator: SVG Repo Mixer Tools -->
<svg height="32" width="32" version="1.1" id="Layer_1" xmlns="http://www.w3.org/2000/svg"
     viewBox="0 0 511.999 511.999" xml:space="preserve">
<path style="fill:#63A097;" d="M400.615,250.611c0,90.147-73.172,163.226-163.434,163.226S73.747,340.758,73.747,250.611
	S146.919,87.385,237.181,87.385S400.615,160.463,400.615,250.611z"/>
    <g>
	<path style="fill:#458081;" d="M237.181,413.837c90.263,0,163.434-73.079,163.434-163.226c0-15.8-2.255-31.07-6.449-45.521
		c-3.884,0.222-8.13,1.475-12.769,4.03l-3.85-24.516c-14.37-5.61-34.025-7.526-39.118,8.938
		c-17.708,57.246-71.373,121.415-75.49,113.511c-5.232-10.035-11.738-19.615-20.139-25.364c-4.319-2.956-11.177-4.743-17.414-4.528
		c-14.402,0.502-19.508,17.202-18.853,30.76c0.252,5.329-49.614,68.862-109.411,26.846
		C125.726,382.148,177.746,413.837,237.181,413.837z"/>
        <path style="fill:#458081;" d="M386.626,184.458c8.988,20.221,13.989,42.602,13.989,66.153
		c0,90.147-73.172,163.226-163.434,163.226S73.747,340.758,73.747,250.611c0-23.55,5.002-45.93,13.989-66.153
		c43.391,15.533,94.593,24.513,149.445,24.513S343.235,199.99,386.626,184.458z"/>
</g>
    <path style="fill:#316B6B;" d="M237.181,413.837c90.263,0,163.434-73.079,163.434-163.226c0-15.801-2.261-31.07-6.459-45.52
	c-3.882,0.223-8.124,1.477-12.759,4.03l-3.407-21.696c-13.111,4.33-26.889,8.064-41.208,11.16
	c-19.161,55.9-69.846,116.142-73.842,108.47c-5.232-10.035-11.738-19.615-20.139-25.364c-4.319-2.956-11.177-4.743-17.414-4.528
	c-14.402,0.502-19.508,17.202-18.853,30.76c0.252,5.329-49.614,68.862-109.411,26.846
	C125.726,382.148,177.746,413.837,237.181,413.837z"/>
    <path style="fill:#86BAA8;" d="M185.934,217.466c-5.044,0-8.948-4.372-8.436-9.389c7.086-69.523,31.122-120.693,59.684-120.693
	s52.598,51.17,59.684,120.693c0.512,5.017-3.393,9.389-8.435,9.389H185.934z"/>
    <path style="fill:#004646;" d="M395.353,291.836c-18.289,70.188-82.169,122.002-158.171,122.002S97.298,362.024,79.01,291.836
	c47.069,12.431,100.934,19.49,158.171,19.49S348.284,304.267,395.353,291.836z"/>
    <path style="fill:#003736;" d="M237.181,413.837c76.002,0,139.883-51.814,158.171-122.002
	c-47.069,12.431-100.934,19.49-158.171,19.49c-10.704,0-21.292-0.247-31.738-0.731c-7.565,13.079-53.813,62.471-108.32,24.172
	C125.724,382.149,177.746,413.837,237.181,413.837z"/>
    <path style="fill:#63A097;" d="M190.665,320.218c-5.483,0-10.133-4.011-10.948-9.432c-2.799-18.62-4.339-38.921-4.339-60.175
	c0-15.696,0.841-30.873,2.407-45.238c19.155,2.354,39.023,3.598,59.398,3.598s40.243-1.244,59.398-3.598
	c1.566,14.366,2.407,29.542,2.407,45.238c0,24.9-2.115,48.492-5.89,69.608L190.665,320.218L190.665,320.218z"/>
    <path style="fill:#548980;" d="M293.096,320.218c2.745-15.36,4.6-32.042,5.414-49.574c-17.289,24.54-33.389,40.599-35.57,36.409
	c-5.232-10.035-11.738-19.615-20.139-25.364c-4.319-2.956-11.177-4.743-17.414-4.528c-14.402,0.502-19.508,17.202-18.853,30.76
	c0.062,1.328-2.994,6.274-8.532,12.298h95.095V320.218z"/>
    <path style="fill:#458081;" d="M237.181,413.837c-26.361,0-48.864-43.594-57.747-104.97c18.761,1.604,38.047,2.459,57.747,2.459
	c19.699,0,38.986-0.855,57.747-2.459C286.046,370.244,263.544,413.837,237.181,413.837z"/>
    <path style="fill:#316B6B;" d="M237.181,311.326c-10.706,0-21.283-0.261-31.727-0.749c-2.701,4.681-10.38,14.041-21.643,22.364
	c10.725,48.389,30.608,80.897,53.371,80.897c26.362,0,48.864-43.594,57.747-104.97C276.167,310.471,256.881,311.326,237.181,311.326
	z"/>
    <path style="fill:#FFCE71;" d="M478.976,392.438c-4.819,14.395-9.594,28.472-14.198,41.75c-4.505,12.991-9.264,26.405-14.306,40.221
	c-2.223,6.119-7.493,9.828-13.052,9.83v0.071h-36.261h-33.955h-48.389c-7.819,0-14.159-7.094-14.159-15.843
	c0-0.227,0.005-0.456,0.014-0.679c-1.02-25.074-11.117-36.329-18.387-44.433c-2.758-3.079-5.236-5.841-7.377-8.981
	c-15.283-22.409-22.347-41.498-30.7-64.085c-3.582-9.678-7.422-20.063-12.859-32.815c-2.482-5.827-6.105-18.96-6.366-24.511
	c-0.663-13.785,4.503-30.767,19.071-31.278c6.309-0.218,13.246,1.599,17.615,4.604c8.499,5.846,15.078,15.587,20.371,25.791
	c4.166,8.037,5.972,18.079,8.858,25.036c1.093,2.642,2.166,4.897,3.208,6.791c9.42,17.126,28.695,7.812,34.838-11.709
	c7.394-23.497,15.827-56.346,16.678-78.201c0.913-23.279,1.795-45.751,12.78-57.34c12.019-12.691,25.035-14.793,39.569-9.088
	l3.895,24.929c20.998-11.624,34.05,3.081,41.857,21.056c7.801,17.95,10.315,25.137,10.526,32.203h16.316
	c2.725,0.3,9.048,3.892,9.776,5.235c6.929,12.705,12.327,25.312,14.4,38.237C503.219,318.631,494.076,347.31,478.976,392.438z"/>
    <path style="fill:#FFA84D;" d="M477.988,246.88c-0.222,2.206-0.53,4.577-0.905,7.241c-0.371,2.65-0.884,5.633-1.567,9.112
	c-1.617,8.144-3.071,16.112-4.479,23.817c-3.397,18.6-6.603,36.168-11.302,51.847c-1.287,4.299-5.234,7.075-9.507,7.076
	c-0.943,0-1.9-0.136-2.851-0.419c-5.253-1.57-8.236-7.096-6.664-12.342c4.384-14.628,7.496-31.673,10.79-49.718
	c1.42-7.779,2.889-15.823,4.531-24.093c0.608-3.101,1.062-5.737,1.383-8.034c0.331-2.34,0.609-4.333,0.802-6.145
	c0.009,0.179,0.016,0.356,0.022,0.533h16.316C475.432,245.852,476.677,246.29,477.988,246.88z M421.991,189.072v-0.604
	c-4.771-0.447-10.122,0.702-16.131,4.029c-2.311,3.114-3.376,6.977-3.009,10.836c1.709,17.895,2.464,33.806-0.526,47.273
	c-6.445,29.034-12.175,54.379-16.983,70.339c-1.575,5.227,1.182,10.95,6.389,12.611c1.007,0.321,2.027,0.474,3.028,0.474
	c4.262,0,8.203-2.763,9.499-7.049c5.026-16.602,10.878-42.468,17.452-72.082C425.764,236.648,421.795,189.14,421.991,189.072z"/>
    <path d="M437.965,495.406H319.068c-14.114,0-25.597-12.23-25.597-27.263c0-0.199,0.003-0.398,0.006-0.598
	c-0.932-20.723-8.671-29.336-15.503-36.942c-2.985-3.327-5.767-6.428-8.331-10.184c-16.12-23.605-23.503-43.542-32.052-66.625
	c-3.634-9.807-7.358-19.86-12.685-32.332c-2.661-6.236-6.923-20.771-7.286-28.479c-0.654-13.598,3.24-26.378,10.413-34.174
	c5.213-5.666,12.024-8.801,19.696-9.07c8.763-0.299,18.141,2.23,24.514,6.607c8.914,6.123,16.792,15.924,24.083,29.962
	c2.986,5.757,4.845,11.965,6.483,17.443c0.959,3.205,1.865,6.233,2.808,8.501c0.906,2.187,1.804,4.092,2.674,5.673
	c1.18,2.142,2.335,3.171,3.407,3.069c2.766-0.275,8.064-4.508,10.652-12.719c7.318-23.222,15.417-55.196,16.2-75.304
	c1.011-25.761,1.966-50.091,15.935-64.807c14.77-15.574,32.247-19.587,51.944-11.924c0.214,0.08,0.426,0.167,0.635,0.261
	c4.157,1.848,6.698,5.923,6.763,10.249c0.167,3.061,0.445,6.454,0.785,10.073c5.59-0.978,11.03-0.58,16.278,1.205
	c11.404,3.878,20.774,14.097,27.852,30.376c5.533,12.712,8.67,20.688,10.218,27.236c2.135-1.395,4.747-2.089,7.48-1.785
	c4.699,0.517,15.321,5.139,18.576,11.138c8.638,15.818,13.622,29.143,15.671,41.91c4.835,31.637-4.081,60.483-20.252,108.751
	c-5.259,15.69-9.928,29.398-14.272,41.913c-4.756,13.693-9.602,27.299-14.405,40.439c-3.618,9.944-12.166,16.573-22.066,17.27
	C439.129,495.361,438.552,495.406,437.965,495.406z M249.173,272.52c-0.217,0-0.433,0.004-0.651,0.011
	c-1.557,0.054-2.633,0.554-3.707,1.72c-2.992,3.252-4.766,10.343-4.415,17.647c0.177,3.759,3.302,15.503,5.481,20.612
	c5.543,12.98,9.539,23.763,13.063,33.276c8.391,22.655,14.992,40.481,29.532,61.773c1.714,2.509,3.901,4.947,6.435,7.77
	c8.054,8.967,20.182,22.468,21.371,51.669c0.011,0.29,0.013,0.582,0.001,0.873l-0.006,0.27c0,2.721,1.653,4.458,2.792,4.458h117.624
	c0.416-0.047,0.839-0.071,1.267-0.071c0.734,0,1.79-0.732,2.374-2.339c4.766-13.041,9.57-26.528,14.286-40.106
	c4.316-12.435,8.96-26.07,14.192-41.678c15.051-44.924,23.371-71.625,19.345-97.976c-1.536-9.568-5.412-20.009-12.154-32.653
	c-0.892-0.525-2.057-1.11-2.714-1.347c-1.348-0.228-2.607-0.687-3.737-1.332c-0.158,1.29-0.342,2.644-0.546,4.083
	c-0.355,2.524-0.841,5.354-1.486,8.642c-1.514,7.616-2.877,15.069-4.195,22.276c-3.194,17.47-6.212,33.97-10.65,48.76
	c-1.81,6.032-8.164,9.453-14.198,7.643c-6.032-1.81-9.454-8.167-7.643-14.199c4.076-13.58,6.982-29.476,10.059-46.308
	c1.333-7.292,2.712-14.833,4.254-22.594c0.56-2.853,0.979-5.282,1.277-7.4c1.847-13.096,1.999-14.166-8.592-38.505
	c-4.286-9.858-9.359-16.207-14.283-17.881c-0.839-0.285-2.905-0.986-6.553,0.039c2.165,21.059,3.841,43.472,0.076,60.417
	c-6.393,28.758-11.661,51.997-16.402,67.638c-1.826,6.027-8.192,9.435-14.22,7.604c-6.027-1.827-9.431-8.193-7.604-14.22
	c4.501-14.85,9.893-38.663,15.965-65.97c3.52-15.834,0.746-41.662-1.481-62.415c-0.642-5.99-1.263-11.763-1.722-17.092
	c-7.731-1.294-14.011,1.319-20.576,8.24c-8.061,8.493-8.89,29.596-9.691,50.002c-1.096,28.133-13.471,69.315-17.237,81.267
	c-4.974,15.783-17.09,27.259-30.147,28.557c-10.547,1.044-19.896-4.332-25.639-14.762c-1.276-2.317-2.54-4.985-3.763-7.935
	c-1.389-3.343-2.458-6.917-3.59-10.703c-1.416-4.733-2.88-9.627-4.875-13.473c-5.521-10.63-11.003-17.721-16.756-21.672
	C257.424,273.834,253.295,272.52,249.173,272.52z M236.704,480.362c-50.801,0-100.432-16.71-140.968-47.682
	c-30.712-23.466-54.844-54.147-70.51-89.04l-2.53,18.055c-0.874,6.236-6.643,10.58-12.875,9.71
	c-6.236-0.874-10.584-6.639-9.71-12.875l9.352-66.75c0.089-0.767,0.256-1.517,0.494-2.237c0.523-1.599,1.383-3.025,2.486-4.209
	c1.125-1.211,2.52-2.187,4.118-2.823c1.212-0.485,2.52-0.768,3.874-0.808c1.354-0.038,2.671,0.153,3.91,0.561
	c1.61,0.526,3.044,1.392,4.234,2.505c1.199,1.117,2.164,2.5,2.797,4.081c0.284,0.704,0.499,1.439,0.637,2.198
	c21.175,101.865,111.902,171.757,215.818,166.21c6.303-0.327,11.658,4.49,11.994,10.778c0.336,6.289-4.49,11.658-10.778,11.994
	C244.93,480.251,240.809,480.362,236.704,480.362z M226.976,425.18c-0.137,0-0.274-0.003-0.412-0.008
	c-0.132-0.005-0.264-0.011-0.394-0.022c-91.977-5.846-164.007-82.674-164.007-174.937c0-96.658,78.638-175.295,175.299-175.295
	c0.008,0,0.015,0,0.024,0c45.412,0.006,88.474,17.311,121.254,48.727c4.546,4.357,4.699,11.575,0.342,16.122
	c-4.357,4.546-11.576,4.699-16.122,0.342c-18.248-17.489-40.155-29.95-63.922-36.657c3.791,6.028,7.508,13.256,11.062,21.901
	c11.934,29.032,19.266,68.169,20.642,110.2c0.207,6.294-4.728,11.563-11.024,11.77c-6.316,0.209-11.563-4.728-11.77-11.024
	c-0.213-6.504-0.575-12.852-1.071-19.027c-16.452,1.682-33.164,2.534-49.817,2.534c-16.568,0-32.94-0.813-49.075-2.433
	c-0.807,10.379-1.244,21.341-1.244,32.839c0,75.223,31.447,138.378,48.311,155.526c0.061,0.061,0.12,0.123,0.18,0.185
	c0.003,0.003,0.005,0.005,0.008,0.008c0.001,0,0.003,0.003,0.004,0.003c1.073,1.134,1.87,2.433,2.389,3.811v0.001
	c0.001,0.004,0.003,0.008,0.004,0.011c0.533,1.418,0.792,2.963,0.713,4.569c0,0.005,0,0.01,0,0.015c0,0.003,0,0.005,0,0.008
	c-0.019,0.362-0.053,0.723-0.106,1.083c0,0.004-0.001,0.009-0.001,0.014c-0.001,0.005-0.001,0.01-0.003,0.015
	c-0.144,0.97-0.41,1.9-0.779,2.771c-0.001,0.004-0.004,0.009-0.006,0.014c-0.001,0.004-0.003,0.008-0.004,0.011
	c-0.566,1.324-1.394,2.563-2.483,3.637c-1.202,1.185-2.6,2.049-4.088,2.591C229.658,424.937,228.342,425.18,226.976,425.18z
	 M95.494,305.847c17.997,45.745,57.51,80.972,106.345,92.673c-11.193-19.121-22.307-45.806-29.577-76.979
	C145.946,318.28,120.211,313.016,95.494,305.847z M87.824,279.624c25.498,8.325,52.305,14.471,79.853,18.312
	c-2.37-15.222-3.739-31.23-3.739-47.721c0-11.867,0.502-23.837,1.498-35.653c-24.424-3.647-48.231-9.192-71.245-16.602
	c-5.966,16.307-9.223,33.907-9.223,52.255C84.968,260.259,85.95,270.094,87.824,279.624z M190.442,194.701
	c15.321,1.532,30.878,2.302,46.621,2.302c15.814,0,31.683-0.805,47.303-2.396c-8.382-58.701-29.101-96.885-46.904-96.885
	C220.824,97.724,199.024,133.535,190.442,194.701z M103.692,177.053c20.793,6.549,42.267,11.499,64.292,14.831
	c4.935-34.877,14.332-66.761,27.905-88.401C156.257,114.726,123.144,141.63,103.692,177.053z M18.343,229.134
	c-0.528,0-1.064-0.037-1.604-0.113c-6.236-0.878-10.579-6.645-9.701-12.881C20.653,119.43,94.084,41.163,189.763,21.381
	c79.288-16.389,160.923,10.03,215.628,67.916l1.794-38.208c0.295-6.29,5.616-11.13,11.924-10.855
	c6.29,0.295,11.15,5.634,10.855,11.924l-3.167,67.486c-0.008,0.189-0.019,0.378-0.035,0.566c-0.137,1.571-0.589,3.044-1.291,4.361
	c-0.74,1.394-1.78,2.652-3.105,3.672c-0.868,0.67-1.832,1.216-2.868,1.615c-0.003,0.001-0.004,0.001-0.006,0.003
	c-0.006,0.001-0.011,0.004-0.018,0.006c-0.004,0.001-0.008,0.003-0.013,0.004s-0.01,0.004-0.015,0.005
	c-0.005,0.003-0.011,0.004-0.016,0.006c-0.004,0.001-0.008,0.003-0.011,0.004c-0.02,0.008-0.039,0.015-0.06,0.023h-0.001
	c-0.01,0.004-0.02,0.008-0.029,0.011c0,0-0.001,0-0.003,0c-0.01,0.004-0.019,0.008-0.029,0.011h-0.001
	c-1.586,0.576-3.259,0.782-4.894,0.637c-1.575-0.138-3.052-0.593-4.371-1.299c-1.353-0.722-2.579-1.728-3.582-3.003
	c-0.117-0.148-0.231-0.3-0.341-0.454c-48.204-66.503-131.3-98.728-211.725-82.104c-86.274,17.84-152.486,88.41-164.763,175.609
	C28.818,225.017,23.935,229.134,18.343,229.134z"/>
</svg>